# xmcd
#
# Track frame offsets:
#	150
#	21337
#	38493
#	62272
#	76328
#	92754
#	109120
#	131601
#	149836
#	164017
#	176202
#	192751
#
# Disc length: 2860 seconds
#
# Revision: 0
# Processed by: cddbd v1.5.2PL0 Copyright (c) Steve Scherf et al.
# Submitted via: EasyCDDAExtractor 12.0.1.1
#
DISCID=a30b2a0c
DTITLE=Gospel Riders Band - Matkalla
DYEAR=1900
DGENRE=
TTITLE0=Gospel Riders
TTITLE1=Jeesus odottaa sinua
TTITLE2=Katso Jumalan Karitsa
TTITLE3=Pelastettujen kiitosvirsi
TTITLE4=Ihmeinen armo
TTITLE5=Sininen Enkeli
TTITLE6=Synnit on pyyhitty pois
TTITLE7=Herra on minun paimeneni
TTITLE8=Rakkaus
TTITLE9=Tässä on tie
TTITLE10=Uusi virsi
TTITLE11=Matkalla
EXTD=
EXTT0=
EXTT1=
EXTT2=
EXTT3=
EXTT4=
EXTT5=
EXTT6=
EXTT7=
EXTT8=
EXTT9=
EXTT10=
EXTT11=
PLAYORDER=
